<svg width="64" height="64" viewBox="0 0 64 64" fill="none" xmlns="http://www.w3.org/2000/svg">
  <defs>
    <linearGradient id="faviconGradient" x1="0%" y1="0%" x2="100%" y2="100%">
      <stop offset="0%" style="stop-color:#3DB34A;stop-opacity:1" />
      <stop offset="100%" style="stop-color:#2DA436;stop-opacity:1" />
    </linearGradient>
  </defs>

  <!-- Background -->
  <rect width="64" height="64" rx="12" fill="#141C22"/>

  <!-- Simplified logo for favicon -->
  <circle cx="32" cy="32" r="24" fill="url(#faviconGradient)" opacity="0.2"/>
  <circle cx="32" cy="32" r="22" fill="none" stroke="url(#faviconGradient)" stroke-width="2"/>

  <!-- Core nodes -->
  <circle cx="32" cy="16" r="4" fill="#3DB34A"/>
  <circle cx="19" cy="32" r="4" fill="#3DB34A"/>
  <circle cx="45" cy="32" r="4" fill="#3DB34A"/>
  <circle cx="25" cy="45" r="4" fill="#7BE27E"/>
  <circle cx="39" cy="45" r="4" fill="#7BE27E"/>

  <!-- Connection lines -->
  <line x1="32" y1="20" x2="32" y2="28" stroke="#3DB34A" stroke-width="2"/>
  <line x1="29" y1="30" x2="23" y2="32" stroke="#3DB34A" stroke-width="2"/>
  <line x1="35" y1="30" x2="41" y2="32" stroke="#3DB34A" stroke-width="2"/>
  <line x1="22" y1="35" x2="26" y2="42" stroke="#3DB34A" stroke-width="2"/>
  <line x1="42" y1="35" x2="38" y2="42" stroke="#3DB34A" stroke-width="2"/>

  <!-- Central hub -->
  <circle cx="32" cy="32" r="7" fill="#0f1720"/>
  <circle cx="32" cy="32" r="5.5" fill="none" stroke="#3DB34A" stroke-width="1.5"/>

  <!-- Arrow -->
  <path d="M32 28 L32 36 M29 33 L32 36 L35 33" stroke="#3DB34A" stroke-width="2" stroke-linecap="round" stroke-linejoin="round"/>
</svg>
